<?xml version="1.0" encoding="UTF-8"?>
<svg id="Layer_3" data-name="Layer 3" xmlns="http://www.w3.org/2000/svg" viewBox="0 0 254.76 151.94">
  <defs>
    <style>
      .cls-1 {
        fill: #fff;
      }
    </style>
  </defs>
  <g>
    <path class="cls-1" d="M138.15,88.63l.73-.34c.07,.25,.2,.44,.38,.57,.18,.13,.42,.2,.71,.2,.27,0,.49-.08,.65-.23,.16-.15,.24-.35,.24-.61,0-.33-.27-.63-.82-.89-.08-.04-.14-.07-.18-.08-.62-.3-1.03-.58-1.24-.82-.21-.25-.31-.54-.31-.9,0-.46,.16-.83,.47-1.12,.31-.28,.72-.43,1.23-.43,.42,0,.76,.08,1.04,.24,.28,.16,.47,.39,.58,.69l-.72,.37c-.11-.18-.24-.31-.37-.39-.13-.08-.29-.12-.46-.12-.25,0-.44,.06-.59,.19-.15,.13-.22,.3-.22,.52,0,.34,.32,.65,.95,.95,.05,.02,.09,.04,.12,.05,.56,.26,.94,.51,1.15,.75,.21,.24,.31,.55,.31,.92,0,.53-.17,.96-.5,1.27-.34,.31-.79,.47-1.36,.47-.48,0-.87-.11-1.18-.33-.31-.22-.51-.54-.6-.95Z"/>
    <path class="cls-1" d="M147.3,84.91v4.86h-.92v-4.86h-1.5v-.78h3.9v.78h-1.49Z"/>
    <path class="cls-1" d="M152.15,84.13h.9v3.42c0,.51,.12,.89,.35,1.14,.24,.26,.59,.38,1.05,.38s.81-.13,1.05-.38c.24-.25,.35-.64,.35-1.14v-3.42h.92v3.51c0,.76-.19,1.33-.58,1.71-.38,.38-.96,.57-1.74,.57s-1.35-.19-1.74-.57-.57-.95-.57-1.71v-3.51Z"/>
    <path class="cls-1" d="M160.71,89.76v-5.63h1.24c.8,0,1.37,.04,1.7,.12,.33,.08,.61,.22,.86,.41,.33,.25,.57,.57,.74,.96,.17,.39,.25,.84,.25,1.34s-.08,.94-.25,1.33c-.17,.39-.42,.7-.74,.96-.25,.19-.53,.33-.84,.41-.31,.08-.8,.12-1.47,.12h-1.48Zm.92-.83h.77c.42,0,.74-.03,.95-.08,.21-.06,.4-.15,.55-.28,.21-.18,.37-.41,.48-.68,.11-.27,.16-.58,.16-.94s-.05-.67-.16-.94c-.11-.27-.27-.5-.48-.68-.16-.13-.35-.23-.57-.28-.22-.06-.57-.08-1.04-.08h-.66v3.99Z"/>
    <path class="cls-1" d="M169.24,89.76v-5.63h.92v5.63h-.92Z"/>
    <path class="cls-1" d="M179.93,86.96c0,.4-.07,.78-.23,1.14-.15,.36-.37,.67-.66,.95-.29,.28-.62,.49-.98,.64s-.75,.22-1.15,.22-.79-.07-1.16-.23c-.37-.15-.69-.36-.98-.64-.29-.28-.51-.6-.65-.95s-.22-.73-.22-1.14,.07-.78,.22-1.14,.37-.68,.65-.96c.29-.28,.61-.49,.98-.64s.75-.22,1.16-.22,.79,.07,1.15,.22c.36,.15,.69,.36,.98,.64,.29,.28,.51,.61,.66,.96,.15,.36,.23,.74,.23,1.13Zm-.95,0c0-.28-.05-.56-.16-.81-.1-.26-.25-.48-.45-.68-.19-.2-.41-.35-.66-.46-.25-.11-.51-.16-.79-.16s-.54,.05-.79,.16c-.25,.11-.47,.26-.67,.46-.19,.2-.34,.42-.45,.68s-.15,.53-.15,.82,.05,.55,.15,.81,.25,.48,.45,.68,.42,.35,.67,.46,.51,.16,.79,.16,.54-.05,.78-.16c.25-.11,.47-.26,.67-.46,.19-.2,.34-.43,.45-.68,.1-.25,.16-.52,.16-.81Z"/>
    <path class="cls-1" d="M183.34,88.63l.73-.34c.07,.25,.2,.44,.38,.57,.18,.13,.42,.2,.71,.2,.27,0,.49-.08,.65-.23,.16-.15,.24-.35,.24-.61,0-.33-.27-.63-.82-.89-.08-.04-.14-.07-.18-.08-.62-.3-1.03-.58-1.24-.82-.21-.25-.31-.54-.31-.9,0-.46,.16-.83,.47-1.12,.31-.28,.72-.43,1.23-.43,.42,0,.76,.08,1.04,.24,.28,.16,.47,.39,.58,.69l-.72,.37c-.11-.18-.24-.31-.37-.39-.13-.08-.29-.12-.46-.12-.25,0-.44,.06-.59,.19-.15,.13-.22,.3-.22,.52,0,.34,.32,.65,.95,.95,.05,.02,.09,.04,.12,.05,.56,.26,.94,.51,1.15,.75,.21,.24,.31,.55,.31,.92,0,.53-.17,.96-.5,1.27-.34,.31-.79,.47-1.36,.47-.48,0-.87-.11-1.18-.33-.31-.22-.51-.54-.6-.95Z"/>
  </g>
  <g>
    <path class="cls-1" d="M146.25,66.18c-.32-.73-.75-1.38-1.3-1.92-.54-.54-1.19-.97-1.91-1.28-1.43-.62-3.27-.65-4.78,0-.33,.14-.64,.32-.94,.51-.29-.19-.6-.37-.94-.51-1.4-.6-3.22-.67-4.78,0-.73,.31-1.37,.74-1.91,1.28-.55,.54-.99,1.19-1.31,1.92-.32,.74-.48,1.53-.48,2.37v12.79h5.46v-12.79c0-.19,.05-.31,.17-.44,.21-.21,.89-.28,1.17,0,.09,.09,.14,.24,.14,.43v4.12h4.93v-4.12c0-.2,.05-.34,.14-.43,.21-.22,.88-.3,1.17,0,.12,.13,.17,.25,.17,.44v12.79h5.46v-12.79c0-.84-.16-1.63-.48-2.37Z"/>
    <path class="cls-1" d="M81.15,62.73v10.75c-.02,1.55-.84,2.6-2.3,2.61h-3.28c-1.47-.02-2.28-1.07-2.3-2.62v-10.74h-5.49v11.78c0,.98,.19,1.91,.56,2.77,.37,.85,.87,1.6,1.5,2.22,.63,.63,1.38,1.14,2.22,1.51,.87,.37,1.8,.56,2.78,.56h4.73c.98,0,1.91-.19,2.77-.56,.84-.36,1.59-.87,2.23-1.5,.63-.64,1.14-1.38,1.5-2.23,.37-.86,.56-1.8,.56-2.77v-11.78h-5.49Z"/>
    <path class="cls-1" d="M166.78,69.09c0-.97-.19-1.9-.56-2.77-.36-.85-.87-1.6-1.5-2.23-.63-.63-1.38-1.14-2.23-1.5-.86-.37-1.8-.56-2.77-.56h-4.73c-.98,0-1.91,.19-2.78,.56-.85,.37-1.6,.87-2.22,1.51-.63,.62-1.13,1.37-1.5,2.22-.37,.86-.56,1.8-.56,2.77v1.88h0v3.7c0,.98,.19,1.91,.56,2.77,.37,.85,.87,1.6,1.5,2.22,.63,.63,1.38,1.14,2.22,1.51,.87,.37,1.8,.56,2.78,.56h4.73c.98,0,1.91-.19,2.77-.56,.84-.36,1.59-.87,2.23-1.5,.63-.64,1.14-1.38,1.5-2.23,.37-.86,.56-1.8,.56-2.77v-1.88h0v-3.7Zm-5.5,4.54c-.02,1.55-.84,2.6-2.3,2.61h-3.28c-1.47-.02-2.28-1.07-2.3-2.62v-.83h0v-2.66c.02-1.55,.84-2.6,2.3-2.62h3.28c1.46,.02,2.28,1.07,2.3,2.61v.84h0v2.66Z"/>
    <path class="cls-1" d="M93.29,81.58v-10.75c.02-1.55,.84-2.6,2.3-2.61h3.28c1.47,.02,2.28,1.07,2.3,2.62v10.74h5.49v-11.78c0-.98-.19-1.91-.56-2.77-.37-.85-.87-1.6-1.5-2.22-.63-.63-1.38-1.14-2.22-1.51-.87-.37-1.8-.56-2.78-.56h-4.73c-.98,0-1.91,.19-2.77,.56-.84,.36-1.59,.87-2.23,1.5-.63,.64-1.14,1.38-1.5,2.23-.37,.86-.56,1.8-.56,2.77v11.78h5.49Z"/>
    <path class="cls-1" d="M173.45,81.36v-10.75c.02-1.55,.84-2.6,2.3-2.61h3.28c1.47,.02,2.28,1.07,2.3,2.62v10.74h5.49v-11.78c0-.98-.19-1.91-.56-2.77-.37-.85-.87-1.6-1.5-2.22-.63-.63-1.38-1.14-2.22-1.51-.87-.37-1.8-.56-2.78-.56h-4.73c-.98,0-1.91,.19-2.77,.56-.84,.36-1.59,.87-2.23,1.5-.63,.64-1.14,1.38-1.5,2.23-.37,.86-.56,1.8-.56,2.77v11.78h5.49Z"/>
    <path class="cls-1" d="M126.71,76.1h-10.75c-1.55-.02-2.6-.84-2.61-2.3v-3.28c.02-1.47,1.07-2.28,2.62-2.3h10.74v-5.49h-11.78c-.98,0-1.91,.19-2.77,.56-.85,.37-1.6,.87-2.22,1.5-.63,.63-1.14,1.38-1.51,2.22-.37,.87-.56,1.8-.56,2.78v4.73c0,.98,.19,1.91,.56,2.77,.36,.84,.87,1.59,1.5,2.23,.64,.63,1.38,1.14,2.23,1.5,.86,.37,1.8,.56,2.77,.56h11.78v-5.49Z"/>
  </g>
</svg>