<?xml version="1.0" encoding="UTF-8"?>
<svg id="Layer_3" data-name="Layer 3" xmlns="http://www.w3.org/2000/svg" viewBox="0 0 254.76 151.94">
  <defs>
    <style>
      .cls-1 {
        fill: #fff;
      }
    </style>
  </defs>
  <path class="cls-1" d="M147.12,70.03c-.33-.76-.79-1.43-1.36-2-.57-.56-1.24-1.01-1.99-1.33-1.49-.65-3.4-.68-4.97,0-.35,.15-.67,.33-.98,.53-.31-.2-.63-.38-.97-.53-1.46-.62-3.36-.69-4.97,0-.76,.32-1.43,.77-1.99,1.33-.58,.57-1.03,1.24-1.36,2-.33,.77-.5,1.6-.5,2.47v13.32h5.69v-13.32c0-.2,.05-.32,.18-.46,.22-.22,.92-.29,1.22,.01,.09,.09,.14,.25,.14,.45v4.29h5.14v-4.29c0-.21,.05-.35,.14-.45,.22-.23,.92-.31,1.22-.01,.13,.13,.18,.26,.18,.46v13.32h5.69v-13.32c0-.87-.17-1.7-.5-2.46Z"/>
  <path class="cls-1" d="M79.31,66.44v11.19c-.02,1.61-.87,2.7-2.4,2.72h-3.42c-1.53-.02-2.38-1.11-2.4-2.73v-11.19h-5.71v12.27c0,1.02,.2,1.99,.59,2.89,.38,.88,.91,1.66,1.56,2.31,.65,.66,1.43,1.19,2.32,1.57,.9,.39,1.88,.59,2.89,.59h4.92c1.02,0,1.99-.2,2.89-.59,.88-.38,1.66-.9,2.32-1.56,.66-.66,1.19-1.44,1.57-2.32,.39-.9,.58-1.87,.58-2.88v-12.27h-5.71Z"/>
  <path class="cls-1" d="M168.51,73.06c0-1.01-.2-1.98-.58-2.88-.38-.88-.91-1.66-1.57-2.32-.66-.66-1.44-1.18-2.32-1.56-.9-.39-1.87-.59-2.89-.59h-4.92c-1.02,0-1.99,.2-2.89,.59-.88,.38-1.66,.91-2.32,1.57-.65,.65-1.18,1.43-1.56,2.31-.39,.9-.59,1.87-.59,2.89v1.95h-.01v3.85c0,1.02,.2,1.99,.59,2.89,.38,.88,.91,1.66,1.56,2.31,.65,.66,1.43,1.19,2.32,1.57,.9,.39,1.88,.59,2.89,.59h4.92c1.02,0,1.99-.2,2.89-.59,.88-.38,1.66-.9,2.32-1.56,.66-.66,1.19-1.44,1.57-2.32,.39-.9,.58-1.87,.58-2.88v-1.95h.01v-3.85Zm-5.72,4.73c-.02,1.61-.87,2.7-2.4,2.72h-3.42c-1.53-.02-2.38-1.11-2.4-2.73v-.87h.01v-2.77c.02-1.62,.87-2.71,2.4-2.73h3.42c1.52,.02,2.38,1.11,2.4,2.72v.88h-.01v2.77Z"/>
  <path class="cls-1" d="M91.97,86.07v-11.19c.02-1.61,.87-2.7,2.4-2.72h3.42c1.53,.02,2.38,1.11,2.4,2.73v11.19h5.71v-12.27c0-1.02-.2-1.99-.59-2.89-.38-.88-.91-1.66-1.56-2.31-.65-.66-1.43-1.19-2.32-1.57-.9-.39-1.88-.59-2.89-.59h-4.92c-1.02,0-1.99,.2-2.89,.59-.88,.38-1.66,.9-2.32,1.56-.66,.66-1.19,1.44-1.57,2.32-.39,.9-.58,1.87-.58,2.88v12.27h5.71Z"/>
  <path class="cls-1" d="M175.45,85.84v-11.19c.02-1.61,.87-2.7,2.4-2.72h3.42c1.53,.02,2.38,1.11,2.4,2.73v11.19h5.71v-12.27c0-1.02-.2-1.99-.59-2.89-.38-.88-.91-1.66-1.56-2.31-.65-.66-1.43-1.19-2.32-1.57-.9-.39-1.88-.59-2.89-.59h-4.92c-1.02,0-1.99,.2-2.89,.59-.88,.38-1.66,.9-2.32,1.56-.66,.66-1.19,1.44-1.57,2.32-.39,.9-.58,1.87-.58,2.88v12.27h5.71Z"/>
  <path class="cls-1" d="M126.77,80.36h-11.19c-1.61-.02-2.7-.87-2.72-2.4v-3.42c.02-1.53,1.11-2.38,2.73-2.4h11.19v-5.71h-12.27c-1.02,0-1.99,.2-2.89,.59-.88,.38-1.66,.91-2.31,1.56-.66,.65-1.19,1.43-1.57,2.32-.39,.9-.59,1.88-.59,2.89v4.92c0,1.02,.2,1.99,.59,2.89,.38,.88,.9,1.66,1.56,2.32,.66,.66,1.44,1.19,2.32,1.57,.9,.39,1.87,.58,2.88,.58h12.27v-5.71Z"/>
</svg>