<?xml version="1.0" encoding="UTF-8"?>
<svg id="Layer_3" data-name="Layer 3" xmlns="http://www.w3.org/2000/svg" viewBox="0 0 178.39 152">
  <defs>
    <style>
      .cls-1 {
        fill: #fff;
      }
    </style>
  </defs>
  <path class="cls-1" d="M76.89,81.06c-.35-.81-.84-1.52-1.44-2.12-.6-.59-1.32-1.07-2.12-1.42-1.59-.69-3.62-.72-5.29,0-.37,.16-.71,.35-1.04,.57-.33-.21-.67-.41-1.04-.57-1.55-.66-3.57-.74-5.29,0-.8,.35-1.52,.82-2.12,1.42-.61,.6-1.1,1.32-1.45,2.12-.35,.82-.53,1.7-.53,2.62v14.17h6.05v-14.17c0-.21,.05-.34,.19-.49,.23-.23,.98-.31,1.3,.01,.1,.1,.15,.26,.15,.47v4.56h5.46v-4.56c0-.22,.05-.38,.15-.47,.23-.24,.98-.33,1.3-.01,.14,.14,.19,.28,.19,.49v14.17h6.05v-14.17c0-.93-.18-1.81-.53-2.62Z"/>
  <path class="cls-1" d="M71.37,53.71v11.9c-.02,1.71-.93,2.88-2.55,2.9h-3.63c-1.62-.02-2.53-1.18-2.55-2.9v-11.9h-6.08v13.05c0,1.08,.21,2.12,.63,3.07,.4,.94,.97,1.77,1.66,2.46,.7,.7,1.53,1.26,2.46,1.67,.96,.42,2,.63,3.08,.63h5.24c1.08,0,2.12-.21,3.07-.63,.94-.4,1.76-.96,2.47-1.66,.7-.7,1.26-1.53,1.67-2.47,.41-.96,.62-1.99,.62-3.07v-13.05h-6.08Z"/>
  <path class="cls-1" d="M99.63,84.29c0-1.08-.21-2.11-.62-3.07-.4-.94-.96-1.77-1.67-2.47-.7-.7-1.53-1.26-2.47-1.66-.96-.42-1.99-.63-3.07-.63h-5.24c-1.08,0-2.12,.21-3.08,.63-.94,.41-1.77,.97-2.46,1.67-.69,.69-1.25,1.52-1.66,2.46-.41,.96-.63,1.99-.63,3.07v2.08h-.01v4.1c0,1.08,.21,2.12,.63,3.07,.4,.94,.97,1.77,1.66,2.46,.7,.7,1.53,1.26,2.46,1.67,.96,.42,2,.63,3.08,.63h5.24c1.08,0,2.12-.21,3.07-.63,.94-.4,1.76-.96,2.47-1.66,.7-.7,1.26-1.53,1.67-2.47,.41-.96,.62-1.99,.62-3.07v-2.08h.01v-4.1Zm-6.09,5.03c-.02,1.71-.93,2.88-2.55,2.9h-3.63c-1.62-.02-2.53-1.18-2.55-2.9v-.92h.01v-2.94c.02-1.72,.93-2.88,2.55-2.9h3.63c1.62,.02,2.53,1.18,2.55,2.9v.93h-.01v2.95Z"/>
  <path class="cls-1" d="M84.82,74.59v-11.9c.02-1.71,.93-2.88,2.55-2.9h3.63c1.62,.02,2.53,1.18,2.55,2.9v11.9h6.08v-13.05c0-1.08-.21-2.12-.63-3.07-.4-.94-.97-1.77-1.66-2.46-.7-.7-1.53-1.26-2.46-1.67-.96-.42-2-.63-3.08-.63h-5.24c-1.08,0-2.12,.21-3.07,.63-.94,.4-1.76,.96-2.47,1.66-.7,.7-1.26,1.53-1.67,2.47-.41,.96-.62,1.99-.62,3.07v13.05h6.08Z"/>
  <path class="cls-1" d="M107.01,97.88v-11.9c.02-1.71,.93-2.88,2.55-2.9h3.63c1.62,.02,2.53,1.18,2.55,2.9v11.9h6.08v-13.05c0-1.08-.21-2.12-.63-3.07-.4-.94-.97-1.77-1.66-2.46-.7-.7-1.53-1.26-2.46-1.67-.96-.42-2-.63-3.08-.63h-5.24c-1.08,0-2.12,.21-3.07,.63-.94,.4-1.76,.96-2.47,1.66-.7,.7-1.26,1.53-1.67,2.47-.41,.96-.62,1.99-.62,3.07v13.05h6.08Z"/>
  <path class="cls-1" d="M121.83,68.52h-11.9c-1.71-.02-2.88-.93-2.9-2.55v-3.63c.02-1.62,1.18-2.53,2.9-2.55h11.9v-6.08h-13.05c-1.08,0-2.12,.21-3.07,.63-.94,.4-1.77,.97-2.46,1.66-.7,.7-1.26,1.53-1.67,2.46-.42,.96-.63,2-.63,3.08v5.24c0,1.08,.21,2.12,.63,3.07,.4,.94,.96,1.76,1.66,2.47,.7,.7,1.53,1.26,2.47,1.67,.96,.41,1.99,.62,3.07,.62h13.05v-6.08Z"/>
</svg>